<svg xmlns="http://www.w3.org/2000/svg" width="88" height="88" fill="none"><path stroke="#EADDFF" stroke-width="7" d="M50.146 15.826c-1.567-6.435-10.725-6.435-12.292 0a6.32 6.32 0 0 1-9.43 3.91c-5.66-3.448-12.137 3.029-8.688 8.688 2.228 3.655.252 8.424-3.907 9.434-6.439 1.564-6.439 10.726 0 12.285a6.32 6.32 0 0 1 3.907 9.434c-3.449 5.66 3.028 12.136 8.688 8.687a6.32 6.32 0 0 1 9.434 3.907c1.563 6.439 10.725 6.439 12.284 0a6.323 6.323 0 0 1 9.434-3.907c5.66 3.449 12.137-3.028 8.688-8.687a6.324 6.324 0 0 1 3.907-9.434c6.439-1.564 6.439-10.725 0-12.285a6.32 6.32 0 0 1-3.907-9.434c3.449-5.66-3.028-12.136-8.687-8.687a6.32 6.32 0 0 1-9.435-3.906l.004-.005Z" clip-rule="evenodd"/><path stroke="#EADDFF" stroke-width="7" d="M51.333 44a7.333 7.333 0 1 1-14.666 0 7.333 7.333 0 0 1 14.666 0Z"/></svg>